<svg version="1.1" xmlns="http://www.w3.org/2000/svg" viewBox="-2340.6069206311713 -1026.2 7717.806920631171 2428.6"><desc>Created with Snap</desc><defs></defs><g><rect x="-2340.6069206311713" y="-1026.2" width="7717.806920631171" height="2428.6" fill="#004e89" style=""></rect><g transform="matrix(18.142,0,0,18.142,-2033.4019,-719.0019)"><path d="M38.597,83.084V66.168l3.232-2.698c3.21-2.681,3.231-2.734,3.234-8.107l0.003-5.41l10.299-2.464
	c5.664-1.355,12.662-3.058,15.551-3.782c2.889-0.726,9.714-2.374,15.168-3.663l9.919-2.344l-0.223-10.678l-0.224-10.678
	l-3.387-0.223c-3.354-0.221-3.399-0.191-4.425,2.905c-1.362,4.112-5.888,8.139-10.423,9.275c-2.617,0.656-11.938,0.838-34.685,0.68
	c-28.599-0.2-31.354-0.329-34.181-1.599c-3.902-1.752-6.649-5.002-7.952-9.408C-1.366,11.656,2.122,4.497,8.456,1.652
	c2.827-1.27,5.583-1.399,34.181-1.598c22.747-0.159,32.067,0.024,34.685,0.68c4.521,1.132,9.06,5.159,10.409,9.235l1.023,3.088
	h5.117c5.087,0,5.121,0.014,5.624,2.283C99.772,16.595,100,22.616,100,28.719v11.097l-11.514,2.785
	c-6.332,1.532-16.239,3.926-22.017,5.321c-5.775,1.395-12.138,2.948-14.139,3.452l-3.635,0.917l-0.245,4.205
	c-0.238,4.087-0.154,4.279,3.029,6.938l3.274,2.734v16.916V100h-8.079h-8.08V83.084L38.597,83.084z" fill="#ffffff" style=""></path><path d="M49.529,90.906c0-1.849-0.257-2.082-2.292-2.082c-1.601,0-2.373,0.378-2.56,1.255c-0.479,2.251,0.492,3.362,2.736,3.13
	C49.198,93.023,49.529,92.662,49.529,90.906L49.529,90.906z" fill="#ffffff" style=""></path><desc>Created with Snap</desc><defs></defs></g><g><g transform="matrix(0.5,0,0,-0.5,0,0)"><path d="M204 1315L238 1332Q325 1375 444 1406Q564 1438 696 1438Q925 1438 1067 1338Q1210 1238 1210 1080Q1210 988 1168 909Q1126 831 1052 781Q1165 732 1218 645Q1272 559 1272 450Q1272 227 1095 91Q919 -45 626 -45Q405 -45 212 35L176 50L249 261L286 251Q498 195 628 195Q789 195 902 257Q1016 320 1016 419Q1016 449 1005 477Q994 505 962 536Q930 567 879 590Q829 613 741 628Q653 643 539 643L492 643L492 871L539 871Q632 871 705 883Q779 895 823 913Q867 932 895 957Q924 982 934 1005Q945 1028 945 1052Q945 1117 869 1159Q793 1202 671 1202Q509 1202 329 1123L290 1105L204 1315ZM1754 0L1754 1421L2060 1421L2532 605L3011 1421L3302 1421L3302 0L3050 0L3050 1063L2646 407L2408 407L2006 1063L2006 0L1754 0Z" fill="#ffffff" style=""></path></g></g><g transform="matrix(1,0,0,1,-32,1085.2)"><g transform="matrix(0.5,0,0,-0.5,0,0)"><path d="M927 1434Q1126 1434 1320 1375L1361 1363L1279 1131L1241 1142Q1060 1192 911 1192Q764 1192 659 1144Q555 1096 555 1021Q555 972 601 935Q648 898 722 872Q796 847 885 822Q975 797 1065 764Q1155 731 1229 688Q1303 645 1349 573Q1396 502 1396 409Q1396 349 1375 290Q1355 232 1306 175Q1258 118 1186 75Q1115 33 1004 6Q894 -20 757 -20Q620 -20 510 5Q400 31 277 79L240 93L325 335L364 320Q617 230 781 230Q935 230 1030 277Q1126 324 1126 401Q1126 444 1097 478Q1068 512 1019 535Q970 559 906 579Q843 599 773 618Q703 637 633 659Q563 681 499 712Q436 743 387 782Q338 821 309 879Q280 938 280 1010Q280 1190 456 1312Q633 1434 927 1434ZM2219 1007Q2467 1007 2618 876Q2770 746 2770 512Q2770 266 2615 123Q2461 -20 2200 -20Q1952 -20 1803 114Q1655 249 1655 484Q1655 725 1806 866Q1958 1007 2219 1007ZM2203 785Q2126 785 2058 756Q1990 727 1943 662Q1897 597 1897 509Q1897 379 1987 290Q2077 202 2221 202Q2352 202 2440 279Q2528 356 2528 483Q2528 556 2499 615Q2470 675 2423 711Q2376 747 2319 766Q2262 785 2203 785ZM3100 0L3100 1511L3346 1511L3346 0L3100 0ZM4461 264L4461 988L4707 988L4707 0L4524 0L4495 67Q4294 -20 4108 -20Q4011 -20 3940 5Q3869 31 3828 70Q3788 110 3764 169Q3740 228 3733 282Q3726 336 3726 404L3726 988L3972 988L3972 406Q3972 380 3974 360Q3977 340 3989 309Q4001 279 4023 259Q4045 239 4089 224Q4133 209 4193 209Q4313 209 4461 264ZM5763 28L5725 18Q5578 -20 5479 -20Q5384 -20 5315 -1Q5247 18 5208 47Q5169 77 5146 123Q5124 170 5117 214Q5110 258 5110 317L5110 777L4957 777L4957 988L5110 988L5110 1271L5356 1271L5356 988L5719 988L5719 777L5356 777L5356 334Q5356 309 5364 286Q5373 263 5392 240Q5411 217 5449 203Q5487 190 5539 190Q5566 190 5685 210L5724 217L5763 28ZM5991 1150L5991 1421L6267 1421L6267 1150L5991 1150ZM6006 0L6006 988L6252 988L6252 0L6006 0ZM7126 1007Q7374 1007 7525 876Q7677 746 7677 512Q7677 266 7522 123Q7368 -20 7107 -20Q6859 -20 6710 114Q6562 249 6562 484Q6562 725 6713 866Q6865 1007 7126 1007ZM7110 785Q7033 785 6965 756Q6897 727 6850 662Q6804 597 6804 509Q6804 379 6894 290Q6984 202 7128 202Q7259 202 7347 279Q7435 356 7435 483Q7435 556 7406 615Q7377 675 7330 711Q7283 747 7226 766Q7169 785 7110 785ZM7987 0L7987 988L8159 988L8193 920Q8399 1008 8576 1008Q8672 1008 8742 982Q8812 956 8852 917Q8892 878 8915 818Q8939 759 8946 705Q8953 651 8953 583L8953 0L8707 0L8707 580Q8707 608 8704 628Q8702 649 8690 679Q8678 710 8657 729Q8636 749 8593 763Q8551 778 8493 778Q8376 778 8233 723L8233 0L7987 0ZM9940 295Q9938 320 9901 339Q9865 358 9808 373Q9751 388 9683 404Q9615 420 9547 443Q9480 467 9424 498Q9368 530 9333 581Q9298 633 9298 699Q9298 738 9312 777Q9327 817 9365 859Q9403 902 9461 934Q9519 966 9616 986Q9713 1007 9835 1007Q9907 1007 9965 999Q10023 992 10047 986Q10071 980 10120 965L10161 953L10093 751L10055 761Q9925 797 9802 797Q9740 797 9693 788Q9646 780 9621 768Q9597 757 9582 741Q9567 726 9563 715Q9559 705 9559 696Q9559 673 9594 654Q9630 635 9687 619Q9744 604 9812 586Q9881 569 9950 544Q10019 519 10076 487Q10133 455 10168 405Q10204 355 10204 293Q10204 250 10191 210Q10179 170 10143 127Q10108 84 10052 52Q9996 21 9901 0Q9806 -20 9683 -20Q9491 -20 9300 58L9263 73L9337 273L9375 258Q9554 191 9692 191Q9820 191 9880 216Q9940 242 9940 295Z" fill="#ffffff" style=""></path></g></g></g></svg>