<svg version="1.1" xmlns="http://www.w3.org/2000/svg" viewBox="-2195.456025314331 -948.2240478515625 5155.942624368128 2248.704064941406"><desc>Created with Snap</desc><defs></defs><g><rect x="-2195.456025314331" y="-948.2240478515625" width="5155.942624368128" height="2248.704064941406" fill="#004e89" style=""></rect><g transform="matrix(25.526,0,0,25.526,1032.3837,-691.438)"><g><g><g><path d="M39,49H9.1c-0.6,0-1-0.4-1-1V19c0-0.6,0.4-1,1-1s1,0.4,1,1v28H39c0.6,0,1,0.4,1,1S39.5,49,39,49z" fill="#ffffff" style=""></path></g><g><path d="M46.9,36.1c-0.6,0-1-0.4-1-1V19c0-0.6,0.4-1,1-1s1,0.4,1,1v16.2C47.9,35.7,47.4,36.1,46.9,36.1z" fill="#ffffff" style=""></path></g><g><path d="M50.5,22.9c-0.2,0-0.5-0.1-0.6-0.2L28,4.3L6.1,22.6c-0.4,0.4-1.1,0.3-1.4-0.1c-0.4-0.4-0.3-1.1,0.1-1.4L27.4,2.2     c0.4-0.3,0.9-0.3,1.3,0l22.5,18.9c0.4,0.4,0.5,1,0.1,1.4C51.1,22.7,50.8,22.9,50.5,22.9z" fill="#ffffff" style=""></path></g><g><path d="M34.5,49H21.5c-0.6,0-1-0.4-1-1V30.6c0-0.6,0.4-1,1-1h13.1c0.6,0,1,0.4,1,1V48C35.5,48.6,35.1,49,34.5,49z M22.5,47h11.1     V31.6H22.5V47z" fill="#ffffff" style=""></path></g></g><g><path d="M60.5,54H41c-1.7,0-3-1.3-3-3V35.1c0-0.6,0.4-1,1-1h23.5c0.6,0,1,0.4,1,1V51C63.5,52.7,62.2,54,60.5,54z M40,36.1V51    c0,0.6,0.4,1,1,1h19.5c0.6,0,1-0.4,1-1V36.1H40z" fill="#ffffff" style=""></path></g><g><path d="M50.7,66L50.7,66c-2.1,0-3.8-1.7-3.8-3.8V53c0-0.6,0.4-1,1-1h5.5c0.6,0,1,0.4,1,1v9.2C54.5,64.3,52.8,66,50.7,66z M49,54    v8.2c0,1,0.8,1.8,1.8,1.8h0c1,0,1.8-0.8,1.8-1.8V54H49z" fill="#ffffff" style=""></path></g><g><path d="M62.5,50H39c-0.6,0-1-0.4-1-1s0.4-1,1-1h23.5c0.6,0,1,0.4,1,1S63.1,50,62.5,50z" fill="#ffffff" style=""></path></g><g><path d="M56.5,41c-0.6,0-1-0.4-1-1v-4.9c0-0.6,0.4-1,1-1s1,0.4,1,1V40C57.5,40.6,57.1,41,56.5,41z" fill="#ffffff" style=""></path></g><g><path d="M50.5,44.1c-0.6,0-1-0.4-1-1v-8c0-0.6,0.4-1,1-1s1,0.4,1,1v8C51.5,43.7,51.1,44.1,50.5,44.1z" fill="#ffffff" style=""></path></g></g><desc>Created with Snap</desc><defs></defs></g><g><g transform="matrix(1.024,0,0,-1.024,0,0)"><path d="M119 524L119 430L29 430L29 538Q29 626 122 626L214 626Q308 626 308 538L308 380Q308 327 268 318Q308 309 308 260L308 88Q308 0 214 0L122 0Q29 0 29 88L29 195L119 195L119 102Q119 84 125 78Q131 73 149 73L188 73Q206 73 212 78Q218 84 218 102L218 252Q218 270 212 275Q206 281 188 281L113 281L113 353L188 353Q206 353 212 358Q218 364 218 382L218 524Q218 542 212 547Q206 553 188 553L149 553Q131 553 125 547Q119 542 119 524ZM486 457L486 0L407 0L407 626L506 626L613 238L720 626L819 626L819 0L740 0L740 458L654 136L572 136L486 457Z" fill="#ffffff" style=""></path></g></g><g transform="matrix(1,0,0,1,-1927.168,993.28)"><g transform="matrix(1.024,0,0,-1.024,0,0)"><path d="M232 102L232 255Q232 273 226 278Q221 284 203 284L129 284Q38 284 38 373L38 538Q38 626 131 626L229 626Q322 626 322 538L322 446L231 446L231 524Q231 542 225 547Q219 553 201 553L159 553Q141 553 135 547Q129 542 129 524L129 385Q129 367 135 361Q141 356 159 356L232 356Q324 356 324 268L324 88Q324 0 230 0L133 0Q40 0 40 88L40 180L131 180L131 102Q131 84 137 78Q143 73 161 73L203 73Q221 73 226 78Q232 84 232 102ZM492 488L599 488Q692 488 692 399L692 88Q692 0 599 0L492 0Q400 0 400 88L400 399Q400 488 492 488ZM603 101L603 387Q603 405 597 411Q591 417 573 417L518 417Q500 417 494 411Q489 405 489 387L489 101Q489 83 494 77Q500 71 518 71L573 71Q591 71 597 77Q603 83 603 101ZM865 669L865 0L775 0L775 669L865 669ZM1140 108L1140 488L1230 488L1230 0L1140 0L1140 39Q1127 0 1078 0L1042 0Q952 0 952 88L952 488L1042 488L1042 102Q1042 84 1048 78Q1054 73 1072 73L1107 73Q1125 73 1132 81Q1140 89 1140 108ZM1483 488L1483 415L1416 415L1416 106Q1416 88 1421 82Q1427 77 1445 77L1483 77L1483 0L1419 0Q1325 0 1325 88L1325 415L1279 415L1279 488L1325 488L1325 571L1416 571L1416 488L1483 488ZM1629 581L1535 581L1535 670L1629 670L1629 581ZM1627 488L1627 0L1537 0L1537 488L1627 488ZM1802 488L1909 488Q2002 488 2002 399L2002 88Q2002 0 1909 0L1802 0Q1710 0 1710 88L1710 399Q1710 488 1802 488ZM1913 101L1913 387Q1913 405 1907 411Q1901 417 1883 417L1828 417Q1810 417 1804 411Q1799 405 1799 387L1799 101Q1799 83 1804 77Q1810 71 1828 71L1883 71Q1901 71 1907 77Q1913 83 1913 101ZM2237 488L2272 488Q2363 488 2363 399L2363 0L2273 0L2273 386Q2273 404 2267 409Q2261 415 2243 415L2208 415Q2190 415 2182 407Q2175 399 2175 380L2175 0L2085 0L2085 488L2175 488L2175 449Q2188 488 2237 488ZM2613 98L2613 179Q2613 197 2607 202Q2601 208 2583 208L2532 208Q2439 208 2439 296L2439 399Q2439 488 2532 488L2605 488Q2699 488 2699 399L2699 352L2611 352L2611 390Q2611 408 2605 413Q2599 419 2581 419L2557 419Q2539 419 2533 413Q2527 408 2527 390L2527 306Q2527 288 2533 282Q2539 277 2557 277L2609 277Q2701 277 2701 188L2701 88Q2701 0 2608 0L2534 0Q2441 0 2441 88L2441 136L2529 136L2529 98Q2529 80 2535 74Q2541 69 2559 69L2583 69Q2601 69 2607 74Q2613 80 2613 98Z" fill="#ffffff" style=""></path></g></g></g></svg>